<?xml version="1.0" encoding="utf-8"?>
<!-- Generator: Adobe Illustrator 19.2.1, SVG Export Plug-In . SVG Version: 6.00 Build 0)  -->
<svg version="1.1" id="Слой_1" xmlns="http://www.w3.org/2000/svg" xmlns:xlink="http://www.w3.org/1999/xlink" x="0px" y="0px"
	 viewBox="0 0 128 50" style="enable-background:new 0 0 128 50;" xml:space="preserve">
<style type="text/css">
	.st0{fill-rule:evenodd;clip-rule:evenodd;fill:#2EC0CD;}
</style>
<path class="st0" d="M127.2,32.4v-10c0-1.7-0.3-2.9-1-3.8c-0.7-0.8-1.7-1.2-3.2-1.2c-1.9,0-3.4,0.8-4.4,2.2c-0.6,0.8-1,1.7-1,2.5
	v10.3h-0.8V22.1c0-1.5-0.3-2.7-1-3.5c-0.7-0.8-1.7-1.1-3.2-1.1c-1.7,0-3.1,0.7-4.2,2.2c-0.6,0.9-1.1,1.9-1.3,3v9.7h-0.8V17h0.8v3.7
	c0.5-1.3,1.3-2.2,2.2-2.9s2-1,3.2-1c1.3,0,2.4,0.3,3.2,0.9c0.8,0.6,1.4,1.5,1.6,2.8c0.5-1.1,1.2-2,2.2-2.7c1-0.7,2.2-1,3.5-1
	c1.7,0,2.9,0.5,3.7,1.4c0.8,0.9,1.2,2.4,1.2,4.2v10.1H127.2z M100.8,29.6c-0.6,1-1.4,1.8-2.5,2.3s-2.2,0.8-3.6,0.8
	c-1.4,0-2.6-0.4-3.4-1.2c-0.9-0.8-1.3-1.8-1.3-3c0-1.4,0.6-2.6,1.9-3.4c1.3-0.9,3-1.3,5.1-1.3h3.8v-2.3c0-1.3-0.4-2.3-1.2-3
	c-0.8-0.7-2-1.1-3.5-1.1c-1.4,0-2.6,0.4-3.5,1.1c-0.9,0.7-1.4,1.6-1.4,2.7l-0.8,0c0-1.3,0.6-2.3,1.7-3.2c1.1-0.9,2.5-1.3,4.1-1.3
	c1.7,0,3,0.4,4,1.2c1,0.8,1.5,2,1.5,3.5v7.4c0,1.7,0.1,2.8,0.4,3.5v0.1H101C100.9,31.8,100.8,30.8,100.8,29.6z M100.8,24.6h-3.6
	c-2.2,0-3.9,0.4-5.1,1.3c-1,0.7-1.4,1.6-1.4,2.7c0,0.9,0.4,1.7,1.1,2.4c0.8,0.7,1.7,1,2.9,1c1.4,0,2.7-0.3,3.7-1
	c1-0.6,1.8-1.6,2.3-2.7V24.6z M85.4,13c-0.2,0-0.4-0.1-0.6-0.2c-0.2-0.2-0.2-0.3-0.2-0.6c0-0.2,0.1-0.4,0.2-0.6
	c0.2-0.2,0.3-0.2,0.6-0.2c0.2,0,0.4,0.1,0.6,0.2c0.2,0.2,0.2,0.3,0.2,0.6c0,0.2-0.1,0.4-0.2,0.6C85.8,12.9,85.6,13,85.4,13z
	 M84.9,17h0.8v17.3c0,1.4-0.4,2.5-1.1,3.3c-0.7,0.8-1.7,1.1-3,1.1c-0.5,0-0.9-0.1-1.4-0.3l0-0.7c0.5,0.2,0.9,0.3,1.4,0.3
	c1.1,0,1.9-0.3,2.4-0.9c0.6-0.6,0.8-1.5,0.8-2.7V17z M79,29.6c-0.6,1-1.4,1.8-2.5,2.3s-2.2,0.8-3.6,0.8c-1.4,0-2.6-0.4-3.4-1.2
	c-0.9-0.8-1.3-1.8-1.3-3c0-1.4,0.6-2.6,1.9-3.4c1.3-0.9,3-1.3,5.1-1.3H79v-2.3c0-1.3-0.4-2.3-1.2-3c-0.8-0.7-2-1.1-3.5-1.1
	c-1.4,0-2.6,0.4-3.5,1.1c-0.9,0.7-1.4,1.6-1.4,2.7l-0.8,0c0-1.3,0.6-2.3,1.7-3.2c1.1-0.9,2.5-1.3,4.1-1.3c1.7,0,3,0.4,4,1.2
	c1,0.8,1.5,2,1.5,3.5v7.4c0,1.7,0.1,2.8,0.4,3.5v0.1h-0.9C79.1,31.8,79,30.8,79,29.6z M79,24.6h-3.6c-2.2,0-3.9,0.4-5.1,1.3
	c-1,0.7-1.4,1.6-1.4,2.7c0,0.9,0.4,1.7,1.1,2.4c0.8,0.7,1.7,1,2.9,1c1.4,0,2.7-0.3,3.7-1c1-0.6,1.8-1.6,2.3-2.7V24.6z M61.8,31.8
	c-0.5-0.6-0.7-1.6-0.7-2.9V17.8h-2.9V17H61v-4.2h0.8V17h3.5v0.8h-3.5v11c0,1.1,0.2,1.9,0.5,2.4c0.4,0.5,1,0.8,1.8,0.8
	c0.4,0,0.9,0,1.5-0.1l0.1,0.7c-0.3,0.1-0.9,0.2-1.6,0.2C63,32.7,62.2,32.4,61.8,31.8z M43.7,36.3L43.7,36.3l-9.9,0l0,0l-0.5,0.2
	L23,5.5v42.8l11-12l0.7,0.7l-12,13L22,49.3l0.3-0.3H22v-0.3L10.8,36.6l0.4-0.3H1l-0.2,0.3L0,36l0.4-0.7v0h0L21.6,0.7L22,1l0.2-0.1
	L22,0.5L22.8,0l21.4,35.3h0.3v1L43.7,36.3L43.7,36.3z M22,47.2V5.9l-9.3,30.5l-0.5-0.1h-0.3L22,47.2z M12,35.3L22,2.5l-0.1-0.4
	L1.6,35.3H12z M23.1,2.3L23,2.5l10.9,32.8h9.1L23.1,2.3z"/>
</svg>
